#!OML:ASF F:\VICON\USERDATA\INSTALL\rory3\rory3.ASF
:FULLY-SPECIFIED
:DEGREES
75
root -1.1979572151896398 16.987230021342814 41.06350817534434 0.6296244044059383 2.0302229081107317 0.6888971938189485
lfemur -20.4738401517196 -0.5459445093164033 -29.310848705903464
ltibia 45.300506912832375
lfoot -5.547860589541699 -11.21696356641023
ltoes 5.896355942988542
rfemur -11.60064002891679 2.2603417507574637 20.705356970275794
rtibia 63.54101200960645
rfoot 4.5865151282369405 -2.1105911259687433
rtoes 11.881399502931446
lowerback 15.505422583585215 1.3159321521223477 -1.9194669539586289
upperback 0.017550502513311583 1.457081404737419 -0.5293381517061795
thorax -8.700832906156373 0.7851652963437061 0.3907085414035858
lowerneck -19.195185842493252 -4.559838472479563 -2.4575975320852548
upperneck 12.22492258902227 -6.360129216642458 5.62907793931913
head 7.353001517483012 -2.7057555782120852 1.6294641825522191
lclavicle -6.436433337720221e-16 -4.857772318871906e-15
lhumerus -45.419942210761995 -13.93873918631511 97.32420312721419
lradius 115.80921707890897
lwrist 33.550015690768944
lhand -31.574444823779523 -0.9587194943066986
lfingers 7.125019999999998
lthumb -4.8250539721519585 29.092003089318375
rclavicle -6.547517122636513e-16 -4.864894705220768e-15
rhumerus -48.63335805910114 12.775548678002203 -97.53079526259272
rradius 119.40116679240894
rwrist -15.560327595060752
rhand -16.925715474910756 34.68479032427466
rfingers 7.125019999999998
rthumb 8.785307916084083 7.36027475446001
76
root -1.187719431434185 16.890874445616316 42.1192884127198 1.141074090099845 1.4797870579370311 0.7484838092526946
lfemur -17.801299791087057 -0.9029411980559574 -29.141262906393568
ltibia 46.6284130677542
lfoot -9.886535030535649 -7.755003790072369
ltoes 5.763617451428097
rfemur -15.210059346090928 2.261744490401005 20.31618017869892
rtibia 68.14448989584791
rfoot 2.6597489233333063 -1.5175347851610974
rtoes 9.660396687557084
lowerback 15.637528304029763 1.2745537632551995 -2.228115109594265
upperback 0.2687574842961956 1.3604303395111068 -0.6349642989992097
thorax -8.721023614682814 0.7575370509345811 0.7573101205366739
lowerneck -19.49433474349761 -4.432745878516501 -2.422815266770408
upperneck 12.458600441107052 -6.173792128342127 5.419625485602735
head 7.4093825197355985 -2.633429700518819 1.564787761168497
lclavicle -6.437728880103374e-16 -4.85786394898909e-15
lhumerus -44.071608880861085 -13.933820538844527 97.20515100271972
lradius 116.43435997106268
lwrist 33.17723854913441
lhand -31.48303731383287 -1.151406988748475
lfingers 7.125019999999998
lthumb -4.687437175443076 28.919775817183968
rclavicle -6.54279699189762e-16 -4.8646260679463815e-15
rhumerus -48.71810424408851 12.573537255516506 -97.43761087560075
rradius 119.83513200976142
rwrist -15.54414511886992
rhand -16.88995286961347 34.39453111168863
rfingers 7.125019999999998
rthumb 8.749055516001006 7.054362153891257
77
root -1.1883951919506526 16.860338987064 42.933027580734006 2.264503613905563 -0.04055586913293863 -0.4347287567563092
lfemur -15.911239897854852 -0.18383190446785092 -27.579882399510314
ltibia 47.51140733426358
lfoot -12.74441195364347 -4.584693783201854
ltoes 3.875666754405893
rfemur -19.039617797446756 3.6698683674402792 22.130374120488714
rtibia 71.33527358294481
rfoot 1.2932490493143445 -1.164201635781449
rtoes 7.282635376076588
lowerback 14.9144167223833 1.3062865688217848 -1.5800815978901803
upperback 0.24623085002428036 1.518677532135675 -0.2624608127999797
thorax -8.79184193579709 0.823978588135799 1.0401720331853814
lowerneck -19.830836603229326 -4.3114541286690935 -2.3824022846714734
upperneck 12.626409659866182 -5.9881734579291805 5.169678234471995
head 7.453648123459125 -2.562230040147612 1.4714243290583844
lclavicle -6.439144974364421e-16 -4.857963988134977e-15
lhumerus -42.75561882338609 -13.830205493948819 97.1251984417598
lradius 117.13482369874708
lwrist 33.12452581039429
lhand -31.4646288807404 -1.3024281004976395
lfingers 7.125019999999998
lthumb -4.58455738524446 28.83116281682612
rclavicle -6.537731353310555e-16 -4.86420035774488e-15
rhumerus -48.84294396890143 12.432955161160155 -97.38860229470617
rradius 120.12654192908607
rwrist -15.53074392958066
rhand -16.903676737158705 34.27637760893987
rfingers 7.125019999999998
rthumb 8.713409154969726 6.834939387320835
78
root -1.1895951620430427 16.917798585852996 44.00269310010461 2.407317034651843 -0.8172743415138335 -0.967268951368994
lfemur -13.31120728608867 0.502899991555219 -26.934982251717855
ltibia 47.51309845118446
lfoot -13.960191168789182 -2.534280091216872
ltoes 1.1868271592712887
rfemur -21.458157413608202 3.903585953491466 23.16135918199347
rtibia 72.53768843822472
rfoot 0.5392009825210722 -1.0699372634847109
rtoes 4.84904964187279
lowerback 15.09369437226123 1.068720109934171 -1.2755165326556193
upperback -0.024306313679134606 1.2837413430425355 -0.1048599408444224
thorax -9.06803859103505 0.7302511939867047 1.2839086533285458
lowerneck -20.152565784277936 -4.184880137838503 -2.3504334451570825
upperneck 12.716645674934464 -5.787157271955894 4.905580967315792
head 7.488337447625227 -2.4827164802713813 1.3680876486204743
lclavicle -6.436635820863921e-16 -4.8577864294167204e-15
lhumerus -42.487398798753574 -14.006448910015875 96.86327407153088
lradius 118.16235179029194
lwrist 33.35657972282728
lhand -31.480442604988138 -1.2864861219901702
lfingers 7.125019999999998
lthumb -4.525293261139596 28.92403011758154
rclavicle -6.556419833581253e-16 -4.865561580582332e-15
rhumerus -49.09042686204287 12.320476915613671 -97.43409172614719
rradius 120.2930863011113
rwrist -15.522810827416798
rhand -17.007387276558255 34.08139545870357
rfingers 7.125019999999998
rthumb 8.700443731821585 6.583998120739907
